<?xml version="1.0" encoding="UTF-8" standalone="no"?>
<!-- Created with Inkscape (http://www.inkscape.org/) -->

<svg
   xmlns:osb="http://www.openswatchbook.org/uri/2009/osb"
   xmlns:dc="http://purl.org/dc/elements/1.1/"
   xmlns:cc="http://creativecommons.org/ns#"
   xmlns:rdf="http://www.w3.org/1999/02/22-rdf-syntax-ns#"
   xmlns:svg="http://www.w3.org/2000/svg"
   xmlns="http://www.w3.org/2000/svg"
   xmlns:sodipodi="http://sodipodi.sourceforge.net/DTD/sodipodi-0.dtd"
   xmlns:inkscape="http://www.inkscape.org/namespaces/inkscape"
   width="744.09448819"
   height="1052.3622047"
   id="svg12157"
   version="1.1"
   inkscape:version="0.48.2 r9819"
   sodipodi:docname="ic_refresh.svg">
  <sodipodi:namedview
     id="base"
     pagecolor="#ffffff"
     bordercolor="#666666"
     borderopacity="1.0"
     inkscape:pageopacity="0.0"
     inkscape:pageshadow="2"
     inkscape:zoom="22.4"
     inkscape:cx="363.57143"
     inkscape:cy="608.16482"
     inkscape:document-units="px"
     inkscape:current-layer="layer1"
     showgrid="false"
     inkscape:window-width="1360"
     inkscape:window-height="744"
     inkscape:window-x="0"
     inkscape:window-y="24"
     inkscape:window-maximized="1" />
  <defs
     id="defs12159">
    <linearGradient
       id="linearGradient14428"
       osb:paint="solid">
      <stop
         style="stop-color:#db0c0c;stop-opacity:1;"
         offset="0"
         id="stop14430" />
    </linearGradient>
  </defs>
  <metadata
     id="metadata12162">
    <rdf:RDF>
      <cc:Work
         rdf:about="">
        <dc:format>image/svg+xml</dc:format>
        <dc:type
           rdf:resource="http://purl.org/dc/dcmitype/StillImage" />
        <dc:title></dc:title>
      </cc:Work>
    </rdf:RDF>
  </metadata>
  <g
     id="layer1"
     inkscape:groupmode="layer"
     inkscape:label="Layer 1">
    <g
       id="g7119"
       transform="translate(-159.29771,-130.3676)"
       style="fill:#db0c0c;fill-opacity:1;stroke:#000000;stroke-opacity:1;opacity:1;stroke-width:0.10000000000000001;stroke-miterlimit:4;stroke-dasharray:none;stroke-linejoin:round"
       inkscape:export-filename="/opt/android-sdk-linux/workspace/Mobile Vikings/apk/ic_refresh.png"
       inkscape:export-xdpi="129.92"
       inkscape:export-ydpi="129.92">
      <g
         id="g7121"
         style="fill:#db0c0c;fill-opacity:1;stroke:#000000;stroke-opacity:1;stroke-width:0.10000000000000001;stroke-miterlimit:4;stroke-dasharray:none;stroke-linejoin:round">
        <g
           id="g7123"
           style="fill:#db0c0c;fill-opacity:1;stroke:#000000;stroke-opacity:1;stroke-width:0.10000000000000001;stroke-miterlimit:4;stroke-dasharray:none;stroke-linejoin:round">
          <path
             d="m 525.012,560.438 c -9.141,0 -16.577,7.437 -16.577,16.578 0,9.141 7.437,16.577 16.577,16.577 9.14,0 16.577,-7.437 16.577,-16.577 0,-9.141 -7.437,-16.578 -16.577,-16.578 z m 15.577,16.579 c 0,8.589 -6.988,15.577 -15.577,15.577 -8.589,0 -15.577,-6.988 -15.577,-15.577 0,-8.59 6.988,-15.578 15.577,-15.578 8.589,0 15.577,6.988 15.577,15.578 z"
             id="path7125"
             inkscape:connector-curvature="0"
             style="fill:#db0c0c;fill-opacity:1;stroke:#000000;stroke-opacity:1;stroke-width:0.10000000000000001;stroke-miterlimit:4;stroke-dasharray:none;stroke-linejoin:round" />
          <path
             d="m 538.404,577.204 c 0,-2.243 -0.566,-4.463 -1.639,-6.418 -10e-4,-10e-4 -0.209,-0.378 -0.209,-0.378 l -0.245,-0.444 -0.44,0.252 -0.374,0.214 c -10e-4,0 -3.074,1.762 -3.074,1.762 0.002,-10e-4 -0.355,0.202 -0.355,0.202 l -0.426,0.242 0.233,0.43 0.196,0.363 c 0.623,1.156 0.952,2.461 0.952,3.775 0,4.417 -3.594,8.011 -8.012,8.011 -4.418,0 -8.011,-3.594 -8.011,-8.011 0,-3.794 2.699,-7.092 6.417,-7.842 l -0.599,-0.49 v 2.209 0.863 l 0.749,-0.43 0.637,-0.365 c 0.001,-10e-4 6.652,-3.846 6.652,-3.846 10e-4,0 0.632,-0.366 0.632,-0.366 l 0.746,-0.433 -0.746,-0.433 -0.634,-0.367 c -0.001,0 -6.649,-3.838 -6.649,-3.838 -0.001,-10e-4 -0.638,-0.366 -0.638,-0.366 l -0.749,-0.43 v 0.863 2.491 l 0.436,-0.496 c -6.633,0.861 -11.635,6.567 -11.635,13.274 0,7.386 6.008,13.395 13.393,13.395 7.385,0 13.392,-6.007 13.392,-13.393 z"
             id="path7127"
             inkscape:connector-curvature="0"
             style="fill:#db0c0c;fill-opacity:1;stroke:#000000;stroke-opacity:1;stroke-width:0.10000000000000001;stroke-miterlimit:4;stroke-dasharray:none;stroke-linejoin:round" />
        </g>
      </g>
      <path
         d="m 511.317,585.284 c 1.416,1.757 29.257,-12.948 28.65,-14.433 -2.404,-5.884 -8.188,-10.031 -14.939,-10.031 -8.91,0 -16.004,6.982 -16.071,16.498 0.334,3.511 0.945,6.211 2.36,7.966 z"
         id="path7129"
         inkscape:connector-curvature="0"
         style="opacity:0.25000000000000000;fill:#db0c0c;fill-opacity:1;stroke:#000000;stroke-opacity:1;stroke-width:0.10000000000000001;stroke-miterlimit:4;stroke-dasharray:none;stroke-linejoin:round" />
    </g>
  </g>
</svg>
